<svg width="20" height="20" viewBox="0 0 20 20" fill="none" xmlns="http://www.w3.org/2000/svg">
<path d="M2.26666 5.73337C2.26666 7.20004 2.73333 8.33337 3.73333 8.93337C4.53333 9.46671 5.46666 9.53337 5.93333 9.53337C6.06666 9.53337 6.13333 9.53337 6.2 9.53337C6.2 9.53337 6.06666 10.5334 6.8 11.5334H6.73333C5.46666 11.5334 1.26666 11.8 1.26666 15.2667C1.26666 18.8 5.13333 18.9334 5.93333 18.9334C6 18.9334 6 18.9334 6 18.9334C6 18.9334 6.06666 18.9334 6.13333 18.9334C6.6 18.9334 7.93333 18.8667 9.13333 18.2667C10.6667 17.5334 11.4667 16.2 11.4667 14.4C11.4667 12.6667 10.2667 11.6 9.4 10.8C8.86666 10.3334 8.4 9.93337 8.4 9.53337C8.4 9.13337 8.73333 8.80004 9.13333 8.46671C9.8 7.86671 10.4667 7.00004 10.4667 5.33337C10.4667 3.86671 10.2667 2.86671 9.13333 2.26671C9.33333 2.20004 9.8 2.13337 10 2.13337C10.6 2.06671 11.5333 1.93337 11.5333 1.46671V1.33337H6.93333C6.86666 1.33337 2.26666 1.53337 2.26666 5.73337ZM9.73333 14.7334C9.8 16.1334 8.6 17.2 6.8 17.3334C4.93333 17.4667 3.46666 16.6667 3.4 15.2667C3.33333 14.6 3.66666 13.9334 4.26666 13.4C4.86666 12.8667 5.66666 12.5334 6.53333 12.4667C6.66666 12.4667 6.73333 12.4667 6.86666 12.4667C8.46666 12.4 9.6 13.4 9.73333 14.7334ZM8.53333 4.73337C9 6.33337 8.33333 8.00004 7.2 8.26671C7.06666 8.33337 6.93333 8.33337 6.8 8.33337C5.8 8.33337 4.8 7.33337 4.46666 5.93337C4.26666 5.20004 4.26666 4.53337 4.53333 3.86671C4.73333 3.20004 5.2 2.80004 5.66666 2.66671C5.8 2.60004 5.93333 2.60004 6.06666 2.60004C7.26666 2.60004 8 3.06671 8.53333 4.73337ZM16.2667 8.13337V5.13337H14.2667V8.13337H11.2667V10.1334H14.2667V13.1334H16.2667V10.1334H19.2667V8.13337H16.2667Z" fill="black"/>
</svg>
