<svg width="20" height="20" viewBox="0 0 20 20" fill="none" xmlns="http://www.w3.org/2000/svg">
<path d="M17.2667 5.8C16.7333 2.06666 13 0.199999 9.06667 0.666665C5.93334 0.999999 2.8 3.53333 2.66667 7.13333C2.6 9.33333 3.2 11 5.33334 11.4667C6.26667 9.86666 5.06667 9.53333 4.86667 8.33333C4.06667 3.53333 10.4 0.333332 13.6667 3.66666C15.9333 6 14.4667 13.0667 10.8 12.3333C7.26667 11.6 12.5333 6 9.73334 4.86666C7.46667 3.93333 6.26667 7.6 7.33334 9.46666C6.66667 12.6 5.33334 15.5333 5.86667 19.4667C7.66667 18.1333 8.26667 15.6667 8.73334 13.0667C9.6 13.6 10.1333 14.2 11.2667 14.2667C15.4667 14.6 17.8 10 17.2667 5.8Z" fill="black"/>
</svg>
