<svg width="20" height="20" viewBox="0 0 20 20" fill="none" xmlns="http://www.w3.org/2000/svg">
<path d="M17.4667 6.39996C17.4667 6.53329 17.4667 6.73329 17.4667 6.86663C17.4667 11.8666 13.6667 17.6 6.73334 17.6C4.6 17.6 2.6 17 0.933334 15.9333C1.2 15.9333 1.53333 16 1.86667 16C3.66667 16 5.26667 15.4 6.53333 14.4C4.86667 14.4 3.46667 13.2666 3 11.8C3.2 11.8666 3.46667 11.8666 3.73333 11.8666C4.06667 11.8666 4.4 11.8 4.73333 11.7333C3 11.3333 1.66667 9.79996 1.66667 7.99996C1.66667 7.99996 1.66667 7.99996 1.66667 7.93329C2.2 8.19996 2.73333 8.39996 3.4 8.39996C2.4 7.73329 1.73333 6.59996 1.73333 5.26663C1.73333 4.59996 1.93333 3.93329 2.26667 3.39996C4.13333 5.66663 6.93334 7.19996 10.0667 7.33329C10 7.06663 10 6.79996 10 6.46663C10 4.39996 11.6667 2.66663 13.8 2.66663C14.8667 2.66663 15.8667 3.13329 16.5333 3.86663C17.4 3.66663 18.2 3.39996 18.9333 2.93329C18.6667 3.79996 18.0667 4.53329 17.2667 4.99996C17.9333 4.93329 18.6667 4.73329 19.3333 4.46663C18.8 5.19996 18.2 5.86663 17.4667 6.39996Z" fill="black"/>
</svg>
