<svg width="20" height="20" viewBox="0 0 20 20" fill="none" xmlns="http://www.w3.org/2000/svg">
<path d="M14.6 7.60003C14.6 7.60003 13.1333 12.2667 13 12.6C12.9333 12.2 11.8667 3.8667 11.8667 3.8667C9.33333 3.8667 8 5.6667 7.26666 7.53337C7.26666 7.53337 5.46667 12.2 5.33333 12.6C5.33333 12.2667 5.06667 7.60003 5.06667 7.60003C4.93333 5.2667 2.8 3.8667 1.06667 3.8667L3.13333 16.4667C5.8 16.4667 7.2 14.6667 7.93333 12.8C7.93333 12.8 9.53333 8.6667 9.6 8.53337C9.6 8.73337 10.7333 16.5334 10.7333 16.5334C13.4 16.5334 14.8 14.8667 15.6 13L19.3333 3.8667C16.7333 3.8667 15.3333 5.6667 14.6 7.60003Z" fill="black"/>
</svg>
